<?xml version="1.0" encoding="iso-8859-1"?>
<!-- Generator: Adobe Illustrator 19.0.0, SVG Export Plug-In . SVG Version: 6.00 Build 0)  -->
<svg version="1.1" id="Layer_1" xmlns="http://www.w3.org/2000/svg" xmlns:xlink="http://www.w3.org/1999/xlink" x="0px" y="0px"
	 viewBox="0 0 512 512" style="enable-background:new 0 0 512 512;" xml:space="preserve">
<path style="fill:#D3E8F1;" d="M361.043,505.423H149.488c-4.154,0-7.521-3.367-7.521-7.521V142.95c0-4.154,3.367-7.521,7.521-7.521
	h211.555c4.154,0,7.521,3.367,7.521,7.521v354.952C368.564,502.056,365.197,505.423,361.043,505.423z"/>
<polygon style="fill:#F5FCFF;" points="328.527,373.593 328.527,375.847 328.527,425.631 182.003,425.631 182.003,175.035 
	328.527,175.035 "/>
<polygon style="fill:#BED8E4;" points="328.507,333.493 368.636,321.284 368.636,310.668 317.359,299.734 315.661,329.246 
	322.88,332.644 "/>
<polygon style="fill:#D3E8F1;" points="287.699,347.008 328.507,333.493 328.719,306.634 299.206,329.777 "/>
<path style="fill:#B0F6FF;" d="M287.699,347.008l-0.185-153.537c0-9.232,7.553-16.785,16.785-16.785h183.491
	c9.232,0,16.785,7.553,16.785,16.785v106.648c0,9.232-7.553,16.785-16.785,16.785l-157.611-0.219
	C330.18,316.686,301.899,343.853,287.699,347.008z"/>
<polygon style="fill:#BED8E4;" points="182.003,175.035 141.732,160.382 153.925,141.252 209.926,145.195 222.047,161.624 
	219.856,181.775 190.359,176.737 "/>
<polygon style="fill:#D3E8F1;" points="226.585,190.79 226.345,190.706 182.003,175.035 222.705,175.035 "/>
<path style="fill:#60D8E8;" d="M226.585,190.79l0.185-153.537c0-9.232-7.553-16.785-16.785-16.785H26.494
	c-9.232,0-16.785,7.553-16.785,16.785v106.648c0,9.232,7.553,16.785,16.785,16.785l157.611-0.219
	C184.105,160.468,212.386,187.636,226.585,190.79z"/>
<path d="M375.831,341.795c0-4.732-3.834-8.566-8.566-8.566c-4.732,0-8.566,3.834-8.566,8.566v90.649
	c0,4.732,3.834,8.566,8.566,8.566c4.732,0,8.566-3.834,8.566-8.566V341.795z"/>
<path d="M367.265,147.566c4.732,0,8.566-3.834,8.566-8.566v-10.611c0-4.732-3.834-8.566-8.566-8.566H259.034
	c-4.732,0-8.566,3.834-8.566,8.566s3.834,8.566,8.566,8.566h99.665V139C358.698,143.732,362.533,147.566,367.265,147.566z"/>
<path d="M140.666,506.951h226.599c4.732,0,8.566-3.834,8.566-8.566v-27.214c0-4.732-3.834-8.566-8.566-8.566
	c-4.732,0-8.566,3.834-8.566,8.566v18.648H149.232V193.874c0-4.732-3.834-8.566-8.566-8.566c-4.732,0-8.566,3.834-8.566,8.566
	v304.51C132.1,503.116,135.935,506.951,140.666,506.951z"/>
<path d="M335.793,418.593v-65.273c0-4.732-3.834-8.566-8.566-8.566s-8.566,3.834-8.566,8.566v56.707H189.269V203.626
	c0-4.732-3.834-8.566-8.566-8.566c-4.732,0-8.566,3.834-8.566,8.566v214.967c0,4.732,3.834,8.566,8.566,8.566h146.524
	C331.959,427.159,335.793,423.324,335.793,418.593z"/>
<path d="M222.881,451.874c-4.732,0-8.566,3.834-8.566,8.566s3.834,8.566,8.566,8.566h62.171c4.732,0,8.566-3.834,8.566-8.566
	s-3.834-8.566-8.566-8.566H222.881z"/>
<path d="M261.82,164.65h-2.786c-4.732,0-8.566,3.834-8.566,8.566c0,4.732,3.834,8.566,8.566,8.566h2.786
	c4.732,0,8.566-3.834,8.566-8.566C270.387,168.484,266.552,164.65,261.82,164.65z"/>
<path d="M25.364,162.401l154.198-0.215c8.324,7.752,30.102,27.02,44.022,30.113c0.616,0.137,1.239,0.204,1.858,0.204
	c1.928,0,3.823-0.652,5.356-1.88c2.026-1.624,3.207-4.079,3.211-6.676L234.195,30.4c0-13.979-11.372-25.351-25.351-25.351H25.351
	C11.372,5.049,0,16.421,0,30.4v106.648C0,151.027,11.372,162.401,25.364,162.401z M17.132,30.4c0-4.532,3.688-8.219,8.219-8.219
	h183.492c4.532,0,8.219,3.688,8.219,8.21l-0.169,139.918c-9.05-5.954-20.44-15.618-27.998-22.872
	c-1.594-1.532-3.722-2.387-5.932-2.387c-0.005,0-0.008,0-0.013,0l-157.598,0.218c-4.532,0-8.219-3.688-8.219-8.219V30.4H17.132z"/>
<path d="M53.697,69.83h126.8c4.732,0,8.566-3.834,8.566-8.566s-3.834-8.566-8.566-8.566h-126.8c-4.732,0-8.566,3.834-8.566,8.566
	S48.965,69.83,53.697,69.83z"/>
<path d="M53.697,112.954h126.8c4.732,0,8.566-3.834,8.566-8.566c0-4.732-3.834-8.566-8.566-8.566h-126.8
	c-4.732,0-8.566,3.834-8.566,8.566C45.131,109.12,48.965,112.954,53.697,112.954z"/>
<path d="M512,293.267V186.618c0-13.979-11.372-25.351-25.351-25.351H303.157c-13.979,0-25.351,11.372-25.351,25.362l0.185,153.538
	c0.003,2.596,1.183,5.052,3.211,6.676c1.534,1.228,3.428,1.88,5.356,1.88c0.619,0,1.243-0.067,1.858-0.204
	c13.921-3.093,35.699-22.362,44.023-30.114l154.211,0.215C500.628,318.617,512,307.245,512,293.267z M329.05,301.267
	c-0.005,0-0.008,0-0.013,0c-2.211,0-4.338,0.857-5.934,2.388c-7.555,7.254-18.946,16.919-27.998,22.872l-0.168-139.909
	c0-4.532,3.688-8.219,8.219-8.219h183.491c4.532,0,8.219,3.688,8.219,8.219v106.649c0,4.532-3.688,8.218-8.208,8.218L329.05,301.267
	z"/>
<path d="M458.303,208.915h-126.8c-4.732,0-8.566,3.834-8.566,8.566s3.834,8.566,8.566,8.566h126.8c4.732,0,8.566-3.834,8.566-8.566
	S463.033,208.915,458.303,208.915z"/>
<path d="M458.303,252.04h-126.8c-4.732,0-8.566,3.834-8.566,8.566s3.834,8.566,8.566,8.566h126.8c4.732,0,8.566-3.834,8.566-8.566
	S463.033,252.04,458.303,252.04z"/>
<g>
</g>
<g>
</g>
<g>
</g>
<g>
</g>
<g>
</g>
<g>
</g>
<g>
</g>
<g>
</g>
<g>
</g>
<g>
</g>
<g>
</g>
<g>
</g>
<g>
</g>
<g>
</g>
<g>
</g>
</svg>
